<svg width="20" height="20" viewBox="0 0 20 20" fill="none" xmlns="http://www.w3.org/2000/svg">
<path d="M16.878 14.9C17.2683 14.2 17.561 13.4 17.561 12.5C17.561 10 15.6098 8 13.1707 8C10.7317 8 8.78049 10 8.78049 12.5C8.78049 15 10.7317 17 13.1707 17C14.0488 17 14.8293 16.7 15.5122 16.3L18.6341 19.5L20 18.1L16.878 14.9ZM13.1707 15C11.8049 15 10.7317 13.9 10.7317 12.5C10.7317 11.1 11.8049 10 13.1707 10C14.5366 10 15.6098 11.1 15.6098 12.5C15.6098 13.9 14.5366 15 13.1707 15ZM9.7561 18V20C4.37073 20 0 15.52 0 10C0 4.48 4.37073 0 9.7561 0C14.478 0 18.4098 3.44 19.3171 8H17.2976C16.9933 6.79184 16.4175 5.67338 15.6162 4.73401C14.815 3.79465 13.8104 3.06042 12.6829 2.59V3C12.6829 4.1 11.8049 5 10.7317 5H8.78049V7C8.78049 7.55 8.34146 8 7.80488 8H5.85366V10H7.80488V13H6.82927L2.1561 8.21C2.02927 8.79 1.95122 9.38 1.95122 10C1.95122 14.41 5.45366 18 9.7561 18Z" fill="#929292"/>
</svg>
