<svg width="24" height="24" viewBox="0 0 16 18" fill="none" xmlns="http://www.w3.org/2000/svg">
  <path d="M1 5.9143H15M2.8095 0V1.543M13 0V1.5428M13 1.5428H3C1.34315 1.5428 0 2.9244 0 4.6285V14.9143C0 16.6185 1.34315 18 3 18H13C14.6569 18 16 16.6185 16 14.9143L16 4.6285C16 2.9244 14.6569 1.5428 13 1.5428ZM16 12.0857H10.5M10.5 12.0857H5.5M10.5 12.0857V17.2285M10.5 12.0857V6.4286M5.5 12.0857H0M5.5 12.0857V17.2285M5.5 12.0857V6.4286" stroke="#929292" stroke-width="1.5" stroke-linecap="round" stroke-linejoin="round"/>
</svg>
