<svg width="79" height="82" viewBox="0 0 79 82" fill="none" xmlns="http://www.w3.org/2000/svg">
<path d="M32.25 23.9143H46.25M34.0595 18V19.543M44.25 18V19.5428M44.25 19.5428H34.25C32.5931 19.5428 31.25 20.9244 31.25 22.6285V32.9143C31.25 34.6185 32.5931 36 34.25 36H44.25C45.9069 36 47.25 34.6185 47.25 32.9143L47.25 22.6285C47.25 20.9244 45.9069 19.5428 44.25 19.5428ZM47.25 30.0857H41.75M41.75 30.0857H36.75M41.75 30.0857V35.2285M41.75 30.0857V24.4286M36.75 30.0857H31.25M36.75 30.0857V35.2285M36.75 30.0857V24.4286" stroke="#929292" stroke-width="1.5" stroke-linecap="round" stroke-linejoin="round"/>
<path d="M20.328 64L18.336 60.58H17.016V64H15.924V55.636H18.624C19.256 55.636 19.788 55.744 20.22 55.96C20.66 56.176 20.988 56.468 21.204 56.836C21.42 57.204 21.528 57.624 21.528 58.096C21.528 58.672 21.36 59.18 21.024 59.62C20.696 60.06 20.2 60.352 19.536 60.496L21.636 64H20.328ZM17.016 59.704H18.624C19.216 59.704 19.66 59.56 19.956 59.272C20.252 58.976 20.4 58.584 20.4 58.096C20.4 57.6 20.252 57.216 19.956 56.944C19.668 56.672 19.224 56.536 18.624 56.536H17.016V59.704ZM29.2248 60.46C29.2248 60.668 29.2128 60.888 29.1888 61.12H23.9328C23.9728 61.768 24.1928 62.276 24.5928 62.644C25.0008 63.004 25.4928 63.184 26.0688 63.184C26.5408 63.184 26.9328 63.076 27.2448 62.86C27.5648 62.636 27.7888 62.34 27.9168 61.972H29.0928C28.9168 62.604 28.5648 63.12 28.0368 63.52C27.5088 63.912 26.8528 64.108 26.0688 64.108C25.4448 64.108 24.8848 63.968 24.3888 63.688C23.9008 63.408 23.5168 63.012 23.2368 62.5C22.9568 61.98 22.8168 61.38 22.8168 60.7C22.8168 60.02 22.9528 59.424 23.2248 58.912C23.4968 58.4 23.8768 58.008 24.3648 57.736C24.8608 57.456 25.4288 57.316 26.0688 57.316C26.6928 57.316 27.2448 57.452 27.7248 57.724C28.2048 57.996 28.5728 58.372 28.8288 58.852C29.0928 59.324 29.2248 59.86 29.2248 60.46ZM28.0968 60.232C28.0968 59.816 28.0048 59.46 27.8208 59.164C27.6368 58.86 27.3848 58.632 27.0648 58.48C26.7528 58.32 26.4048 58.24 26.0208 58.24C25.4688 58.24 24.9968 58.416 24.6048 58.768C24.2208 59.12 24.0008 59.608 23.9448 60.232H28.0968ZM30.2582 60.688C30.2582 60.016 30.3942 59.428 30.6662 58.924C30.9382 58.412 31.3102 58.016 31.7822 57.736C32.2622 57.456 32.7982 57.316 33.3902 57.316C33.9582 57.316 34.4542 57.444 34.8782 57.7C35.3102 57.948 35.6262 58.256 35.8262 58.624V57.424H36.9302V67.12H35.8262V62.788C35.6182 63.156 35.2982 63.468 34.8662 63.724C34.4342 63.98 33.9302 64.108 33.3542 64.108C32.7782 64.108 32.2542 63.964 31.7822 63.676C31.3102 63.388 30.9382 62.984 30.6662 62.464C30.3942 61.944 30.2582 61.352 30.2582 60.688ZM35.8262 60.7C35.8262 60.204 35.7262 59.772 35.5262 59.404C35.3262 59.036 35.0542 58.756 34.7102 58.564C34.3742 58.364 34.0022 58.264 33.5942 58.264C33.1862 58.264 32.8142 58.36 32.4782 58.552C32.1422 58.744 31.8742 59.024 31.6742 59.392C31.4742 59.76 31.3742 60.192 31.3742 60.688C31.3742 61.192 31.4742 61.632 31.6742 62.008C31.8742 62.376 32.1422 62.66 32.4782 62.86C32.8142 63.052 33.1862 63.148 33.5942 63.148C34.0022 63.148 34.3742 63.052 34.7102 62.86C35.0542 62.66 35.3262 62.376 35.5262 62.008C35.7262 61.632 35.8262 61.196 35.8262 60.7ZM44.6076 57.424V64H43.5156V63.028C43.3076 63.364 43.0156 63.628 42.6396 63.82C42.2716 64.004 41.8636 64.096 41.4156 64.096C40.9036 64.096 40.4436 63.992 40.0356 63.784C39.6276 63.568 39.3036 63.248 39.0636 62.824C38.8316 62.4 38.7156 61.884 38.7156 61.276V57.424H39.7956V61.132C39.7956 61.78 39.9596 62.28 40.2876 62.632C40.6156 62.976 41.0636 63.148 41.6316 63.148C42.2156 63.148 42.6756 62.968 43.0116 62.608C43.3476 62.248 43.5156 61.724 43.5156 61.036V57.424H44.6076ZM52.4513 60.46C52.4513 60.668 52.4393 60.888 52.4153 61.12H47.1593C47.1993 61.768 47.4193 62.276 47.8193 62.644C48.2273 63.004 48.7193 63.184 49.2953 63.184C49.7673 63.184 50.1593 63.076 50.4713 62.86C50.7913 62.636 51.0153 62.34 51.1433 61.972H52.3193C52.1433 62.604 51.7913 63.12 51.2633 63.52C50.7353 63.912 50.0793 64.108 49.2953 64.108C48.6713 64.108 48.1113 63.968 47.6153 63.688C47.1273 63.408 46.7433 63.012 46.4633 62.5C46.1833 61.98 46.0433 61.38 46.0433 60.7C46.0433 60.02 46.1793 59.424 46.4513 58.912C46.7233 58.4 47.1033 58.008 47.5913 57.736C48.0873 57.456 48.6553 57.316 49.2953 57.316C49.9193 57.316 50.4713 57.452 50.9513 57.724C51.4313 57.996 51.7993 58.372 52.0553 58.852C52.3193 59.324 52.4513 59.86 52.4513 60.46ZM51.3233 60.232C51.3233 59.816 51.2313 59.46 51.0473 59.164C50.8633 58.86 50.6113 58.632 50.2913 58.48C49.9793 58.32 49.6313 58.24 49.2473 58.24C48.6953 58.24 48.2233 58.416 47.8313 58.768C47.4473 59.12 47.2273 59.608 47.1713 60.232H51.3233ZM56.2208 64.108C55.7168 64.108 55.2648 64.024 54.8648 63.856C54.4648 63.68 54.1488 63.44 53.9168 63.136C53.6848 62.824 53.5568 62.468 53.5328 62.068H54.6608C54.6928 62.396 54.8448 62.664 55.1168 62.872C55.3968 63.08 55.7608 63.184 56.2088 63.184C56.6248 63.184 56.9528 63.092 57.1928 62.908C57.4328 62.724 57.5528 62.492 57.5528 62.212C57.5528 61.924 57.4248 61.712 57.1688 61.576C56.9128 61.432 56.5168 61.292 55.9808 61.156C55.4928 61.028 55.0928 60.9 54.7808 60.772C54.4768 60.636 54.2128 60.44 53.9888 60.184C53.7728 59.92 53.6648 59.576 53.6648 59.152C53.6648 58.816 53.7648 58.508 53.9648 58.228C54.1648 57.948 54.4488 57.728 54.8168 57.568C55.1848 57.4 55.6048 57.316 56.0768 57.316C56.8048 57.316 57.3928 57.5 57.8408 57.868C58.2888 58.236 58.5288 58.74 58.5608 59.38H57.4688C57.4448 59.036 57.3048 58.76 57.0488 58.552C56.8008 58.344 56.4648 58.24 56.0408 58.24C55.6488 58.24 55.3368 58.324 55.1048 58.492C54.8728 58.66 54.7568 58.88 54.7568 59.152C54.7568 59.368 54.8248 59.548 54.9608 59.692C55.1048 59.828 55.2808 59.94 55.4888 60.028C55.7048 60.108 56.0008 60.2 56.3768 60.304C56.8488 60.432 57.2328 60.56 57.5288 60.688C57.8248 60.808 58.0768 60.992 58.2848 61.24C58.5008 61.488 58.6128 61.812 58.6208 62.212C58.6208 62.572 58.5208 62.896 58.3208 63.184C58.1208 63.472 57.8368 63.7 57.4688 63.868C57.1088 64.028 56.6928 64.108 56.2208 64.108ZM61.4943 58.324V62.2C61.4943 62.52 61.5623 62.748 61.6983 62.884C61.8343 63.012 62.0703 63.076 62.4063 63.076H63.2103V64H62.2263C61.6183 64 61.1623 63.86 60.8583 63.58C60.5543 63.3 60.4023 62.84 60.4023 62.2V58.324H59.5503V57.424H60.4023V55.768H61.4943V57.424H63.2103V58.324H61.4943Z" fill="#929292"/>
</svg>
