<svg width="39" height="32" viewBox="0 0 39 32" fill="none" xmlns="http://www.w3.org/2000/svg">
<path d="M26.0089 22.6628L19.3422 15.9961L12.6755 22.6628" stroke="#047185" stroke-width="2" stroke-linecap="round" stroke-linejoin="round"/>
<path d="M19.3423 15.9961V30.9961" stroke="#047185" stroke-width="2" stroke-linecap="round" stroke-linejoin="round"/>
<path d="M33.3255 26.6459C34.9511 25.7597 36.2353 24.3574 36.9753 22.6603C37.7154 20.9632 37.8692 19.068 37.4126 17.2737C36.9559 15.4795 35.9147 13.8884 34.4533 12.7516C32.992 11.6149 31.1937 10.9971 29.3422 10.9959H27.2422C26.7377 9.04464 25.7975 7.23313 24.4921 5.69756C23.1868 4.16199 21.5503 2.94232 19.7057 2.13025C17.8611 1.31818 15.8565 0.934836 13.8424 1.00904C11.8284 1.08325 9.85733 1.61307 8.07751 2.55868C6.2977 3.50429 4.7554 4.84108 3.56659 6.46854C2.37777 8.09601 1.57337 9.9718 1.21385 11.9549C0.854335 13.938 0.949061 15.9768 1.49091 17.918C2.03275 19.8592 3.00762 21.6523 4.34222 23.1626" stroke="#047185" stroke-width="2" stroke-linecap="round" stroke-linejoin="round"/>
<path d="M26.0089 22.6628L19.3422 15.9961L12.6755 22.6628" stroke="#047185" stroke-width="2" stroke-linecap="round" stroke-linejoin="round"/>
</svg>
