<svg width="176" height="176" viewBox="0 0 176 176" fill="none" xmlns="http://www.w3.org/2000/svg">
<path d="M88 176C136.606 176 176 136.606 176 88C176 79.6125 174.831 71.4656 172.631 63.7656C179.025 51.3563 171.703 35.0281 156.578 32.8281C140.456 12.7875 115.706 0 88 0C60.2938 0 35.5438 12.8219 19.4219 32.8281C4.29688 35.0281 -3.025 51.3563 3.36875 63.7656C1.16875 71.4656 0 79.5781 0 88C0 136.606 39.3938 176 88 176ZM132.928 111.684C137.019 110.412 141.144 113.85 139.666 117.906C131.966 138.978 111.719 154.034 88 154.034C64.2812 154.034 44.0344 138.944 36.3344 117.872C34.8563 113.816 38.9813 110.378 43.0719 111.65C56.5469 115.844 71.8438 118.216 88 118.216C104.156 118.216 119.453 115.844 132.928 111.65V111.684ZM122.066 32.2781C123.888 28.6 129.113 28.6 130.934 32.2781L138.119 46.8531L154.172 49.1906C158.228 49.775 159.844 54.7594 156.922 57.6125L145.303 68.9563L148.053 84.975C148.741 88.9969 144.512 92.0906 140.869 90.2L126.5 82.6375L112.131 90.2C108.522 92.0906 104.259 89.0312 104.947 84.975L107.697 68.9563L96.0781 57.6125C93.1562 54.7594 94.7719 49.775 98.8281 49.1906L114.881 46.8531L122.066 32.2781ZM53.9344 32.2781L61.1188 46.8531L77.1719 49.1906C81.2281 49.775 82.8438 54.7594 79.9219 57.6125L68.3031 68.9563L71.0531 84.975C71.7406 88.9969 67.5125 92.0906 63.8688 90.2L49.5 82.6375L35.1312 90.2C31.5219 92.0906 27.2594 89.0312 27.9469 84.975L30.6969 68.9563L19.0781 57.6125C16.1562 54.7594 17.7719 49.775 21.8281 49.1906L37.8812 46.8531L45.0656 32.2781C46.8875 28.6 52.1125 28.6 53.9344 32.2781Z" fill="#0E212F"/>
</svg>
